<?xml version="1.0" encoding="utf-8"?>
<!-- Generator: Adobe Illustrator 16.0.0, SVG Export Plug-In . SVG Version: 6.00 Build 0)  -->
<!DOCTYPE svg PUBLIC "-//W3C//DTD SVG 1.1//EN" "http://www.w3.org/Graphics/SVG/1.1/DTD/svg11.dtd">
<svg version="1.1" id="Layer_1" xmlns="http://www.w3.org/2000/svg" xmlns:xlink="http://www.w3.org/1999/xlink" x="0px" y="0px"
	 width="529.895px" height="179.943px" viewBox="0 0 529.895 179.943" enable-background="new 0 0 529.895 179.943"
	 xml:space="preserve">
<g>
	<defs>
		<rect id="SVGID_1_" width="529.895" height="179.943"/>
	</defs>
	<clipPath id="SVGID_2_">
		<use xlink:href="#SVGID_1_"  overflow="visible"/>
	</clipPath>
	<path clip-path="url(#SVGID_2_)" fill="#FFFFFF" d="M391.307,46.338c-2.961,7.852-4.586,16.36-4.586,25.248
		c0,31.014,19.726,57.419,47.313,67.362v-33.485c0-6.104,0.53-12.132,1.582-18.054c-3.768-8.465-9.113-16.265-15.884-23.036
		C411.546,56.188,401.856,50.088,391.307,46.338"/>
	<path clip-path="url(#SVGID_2_)" fill="#FFFFFF" d="M466.418,111.833v3.44c0.339-9.907,2.402-19.549,6.146-28.719
		c-1.019-5.01-2.454-9.931-4.287-14.743c-2.293,4.307-4.206,8.794-5.722,13.419C465.117,93.831,466.418,102.739,466.418,111.833"/>
	<path clip-path="url(#SVGID_2_)" fill="#FFFFFF" d="M450.198,115.273v-3.44c0-9.093,1.301-18.002,3.863-26.602
		c-1.516-4.626-3.429-9.113-5.722-13.42c-1.833,4.812-3.269,9.733-4.287,14.743C447.796,95.724,449.859,105.366,450.198,115.273"/>
	<path clip-path="url(#SVGID_2_)" fill="#FFFFFF" d="M405.033,23.774c1.327,0.494,2.646,1.015,3.956,1.572
		c11.17,4.745,21.213,11.53,29.849,20.167c3.023,3.022,5.813,6.221,8.374,9.576c1.826-3.256,3.82-6.409,5.987-9.448
		c-2.109-2.599-4.356-5.101-6.749-7.493c-8.774-8.775-18.974-15.667-30.316-20.485c-1.104-0.47-2.219-0.911-3.337-1.337
		C410.026,18.611,407.433,21.103,405.033,23.774"/>
	<path clip-path="url(#SVGID_2_)" fill="#FFFFFF" d="M463.417,45.641c2.167,3.038,4.161,6.192,5.986,9.448
		c2.562-3.355,5.352-6.554,8.374-9.576c8.637-8.637,18.68-15.422,29.85-20.168c1.31-0.556,2.629-1.077,3.956-1.571
		c-2.398-2.671-4.992-5.163-7.765-7.448c-1.117,0.426-2.23,0.867-3.337,1.336c-11.342,4.819-21.542,11.711-30.315,20.485
		C467.772,40.54,465.525,43.042,463.417,45.641"/>
	<path clip-path="url(#SVGID_2_)" fill="#FFFFFF" d="M473.516,63.234c0.307,0.68,0.608,1.363,0.901,2.052
		c1.411,3.322,2.637,6.697,3.684,10.116c3.604-6.085,7.962-11.702,13.036-16.776c7.758-7.759,16.779-13.854,26.814-18.117
		c1.344-0.571,2.7-1.104,4.064-1.603c-1.507-2.932-3.213-5.746-5.096-8.426c-12.418,4.169-23.821,11.206-33.395,20.78
		C479.796,54.989,476.456,58.999,473.516,63.234"/>
	<path clip-path="url(#SVGID_2_)" fill="#FFFFFF" d="M458.309,73.772c1.724-3.86,3.695-7.581,5.905-11.151
		c-1.764-3.483-3.733-6.847-5.905-10.079c-2.173,3.232-4.143,6.596-5.906,10.079C454.612,66.191,456.584,69.913,458.309,73.772"/>
	<path clip-path="url(#SVGID_2_)" fill="#FFFFFF" d="M452.198,32.4c2.143,2.143,4.177,4.368,6.109,6.665
		c1.935-2.297,3.968-4.522,6.11-6.665c9.186-9.185,19.818-16.463,31.614-21.66C485.078,3.935,472.153,0,458.308,0
		c-13.845,0-26.77,3.935-37.724,10.741C432.38,15.938,443.013,23.215,452.198,32.4"/>
	<path clip-path="url(#SVGID_2_)" fill="#FFFFFF" d="M481,87.409c1.052,5.922,1.582,11.951,1.582,18.054v33.484
		c27.588-9.942,47.313-36.348,47.313-67.362c0-8.888-1.625-17.396-4.585-25.248c-10.551,3.75-20.24,9.848-28.427,18.035
		C490.112,71.144,484.768,78.944,481,87.409"/>
	<path clip-path="url(#SVGID_2_)" fill="#FFFFFF" d="M399.696,30.48c-1.883,2.68-3.589,5.493-5.096,8.426
		c1.365,0.498,2.72,1.032,4.064,1.603c10.034,4.263,19.057,10.358,26.814,18.116c5.074,5.074,9.431,10.692,13.035,16.776
		c1.048-3.419,2.273-6.794,3.685-10.116c0.292-0.688,0.595-1.371,0.901-2.052c-2.94-4.235-6.28-8.244-10.009-11.973
		C423.517,41.686,412.114,34.648,399.696,30.48"/>
	<path clip-path="url(#SVGID_2_)" fill="#FFFFFF" d="M78.307,62.852L51.175,109.01v27.366c0,3.641-1.175,4.935-4.934,4.935H32.969
		c-3.758,0-5.051-1.294-5.051-4.935V109.01L0.904,62.852c-1.644-2.701-1.174-4.933,2.467-4.933h14.094
		c5.873,0,7.517,0.235,9.749,4.345l12.568,23.961l12.919-23.961c2.232-4.11,3.876-4.345,9.631-4.345h13.507
		C79.363,57.918,79.833,60.15,78.307,62.852"/>
	<path clip-path="url(#SVGID_2_)" fill="#FFFFFF" d="M141.204,141.31H128.52c-6.108,0-7.87-1.292-8.81-4.934l-2.701-8.456h-25.37
		l-2.701,8.456c-1.175,3.642-2.701,4.934-8.574,4.934H68.031c-3.641,0-4.345-1.644-3.171-4.815l27.014-74.465
		c1.174-3.406,2.702-4.111,6.108-4.111h13.389c3.406,0,4.934,0.822,6.107,3.876l27.132,74.7
		C145.785,139.667,144.727,141.31,141.204,141.31 M113.603,34.311l5.99,6.812c2.114,2.349,2.232,3.641-0.587,4.698l-21.377,6.578
		c-2.818,0.823-4.11,1.057-5.403-0.588l-3.17-3.875c-1.88-2.231-1.762-3.288,0.234-4.464l16.561-9.513
		C108.552,32.432,111.253,31.727,113.603,34.311 M104.793,79.295h-1.175c0,0,0.118,8.456-2.232,16.325l-4.345,13.86h14.682
		l-4.346-13.742C105.029,87.751,104.793,79.295,104.793,79.295"/>
	<path clip-path="url(#SVGID_2_)" fill="#FFFFFF" d="M215.838,62.852v7.048c0,2.231-0.47,3.64-1.527,5.167l-32.534,45.689h29.715
		c3.758,0,4.933,1.175,4.933,4.934v10.688c0,3.641-1.175,4.935-4.933,4.935H155.82c-3.642,0-4.933-1.294-4.933-4.935v-7.164
		c0-1.997,0.586-3.523,1.644-4.934l32.534-45.805h-28.658c-3.641,0-4.934-1.293-4.934-5.051V62.852c0-3.641,1.293-4.933,4.934-4.933
		h54.498C214.664,57.918,215.838,59.21,215.838,62.852"/>
	<path clip-path="url(#SVGID_2_)" fill="#FFFFFF" d="M230.165,57.918h13.859c3.524,0,4.698,1.175,4.698,4.699v73.995
		c0,3.522-1.174,4.698-4.698,4.698h-13.859c-3.524,0-4.698-1.176-4.698-4.698V62.617C225.467,59.093,226.641,57.918,230.165,57.918"
		/>
	<path clip-path="url(#SVGID_2_)" fill="#FFFFFF" d="M330.82,98.44v15.504c0,16.561-12.92,29.128-36.058,29.128
		c-23.139,0-36.175-12.567-36.175-32.886V89.043c0-20.32,13.037-32.887,36.175-32.887c18.088,0,29.362,7.399,34.296,20.554
		c1.175,3.407,0.352,5.168-3.171,6.343l-12.567,4.462c-3.641,1.176-5.051,0.471-6.343-3.17c-2.114-5.285-5.638-7.635-12.215-7.635
		c-9.279,0-12.92,3.994-12.92,12.216v21.375c0,8.224,3.641,12.217,12.92,12.217c7.869,0,12.685-2.937,12.685-7.987v-2.349h-11.274
		c-3.642,0-4.935-1.175-4.935-4.934V98.44c0-3.758,1.293-5.051,4.935-5.051h29.715C329.646,93.389,330.82,94.682,330.82,98.44"/>
	<path clip-path="url(#SVGID_2_)" fill="#FFFFFF" d="M344.794,57.918h13.859c3.524,0,4.698,1.175,4.698,4.699v73.995
		c0,3.522-1.174,4.698-4.698,4.698h-13.859c-3.522,0-4.697-1.176-4.697-4.698V62.617C340.097,59.093,341.271,57.918,344.794,57.918"
		/>
	<polygon clip-path="url(#SVGID_2_)" fill="#FFFFFF" points="33.936,179.67 28,164.558 31.012,164.558 35.589,176.793 
		40.166,164.558 43.179,164.558 37.242,179.67 	"/>
	<path clip-path="url(#SVGID_2_)" fill="#FFFFFF" d="M45.739,172.125c0-4.509,3.194-7.816,7.726-7.816
		c4.532,0,7.726,3.308,7.726,7.816c0,4.51-3.194,7.817-7.726,7.817C48.933,179.943,45.739,176.635,45.739,172.125 M58.473,172.125
		c0-3.127-1.972-5.461-5.008-5.461c-3.059,0-5.008,2.334-5.008,5.461c0,3.104,1.949,5.46,5.008,5.46
		C56.5,177.585,58.473,175.23,58.473,172.125"/>
	<path clip-path="url(#SVGID_2_)" fill="#FFFFFF" d="M65.11,172.125c0-4.645,3.466-7.816,7.93-7.816c3.059,0,4.94,1.586,6.072,3.398
		l-2.266,1.155c-0.725-1.246-2.175-2.198-3.806-2.198c-2.991,0-5.211,2.289-5.211,5.461s2.22,5.46,5.211,5.46
		c1.631,0,3.081-0.928,3.806-2.196l2.266,1.154c-1.155,1.813-3.013,3.399-6.072,3.399C68.576,179.943,65.11,176.771,65.11,172.125"
		/>
	<path clip-path="url(#SVGID_2_)" fill="#FFFFFF" d="M83.28,179.671v-15.113h10.354v2.334h-7.703v3.92h7.545v2.333h-7.545v4.192
		h7.703v2.334H83.28z M90.168,163.29l-1.744-2.176l-1.699,2.176h-1.496l2.106-3.264h2.176l2.175,3.264H90.168z"/>
	<path clip-path="url(#SVGID_2_)" fill="#FFFFFF" d="M105.574,172.125c0-4.645,3.466-7.816,7.93-7.816
		c3.059,0,4.94,1.586,6.072,3.398l-2.266,1.155c-0.725-1.246-2.175-2.198-3.806-2.198c-2.991,0-5.211,2.289-5.211,5.461
		s2.22,5.46,5.211,5.46c1.631,0,3.081-0.928,3.806-2.196l2.266,1.154c-1.155,1.813-3.013,3.399-6.072,3.399
		C109.04,179.943,105.574,176.771,105.574,172.125"/>
	<rect x="123.744" y="164.558" clip-path="url(#SVGID_2_)" fill="#FFFFFF" width="2.651" height="15.112"/>
	<path clip-path="url(#SVGID_2_)" fill="#FFFFFF" d="M131.65,179.67v-15.112h5.62c4.711,0,7.906,3.127,7.906,7.567
		c0,4.441-3.195,7.545-7.906,7.545H131.65z M142.458,172.125c0-2.923-1.812-5.233-5.187-5.233h-2.969v10.444h2.969
		C140.554,177.336,142.458,174.981,142.458,172.125"/>
	<path clip-path="url(#SVGID_2_)" fill="#FFFFFF" d="M159.564,179.67l-1.11-2.899h-6.934l-1.11,2.899h-3.013l5.936-15.112h3.308
		l5.936,15.112H159.564z M154.987,167.232l-2.719,7.205h5.438L154.987,167.232z"/>
	<path clip-path="url(#SVGID_2_)" fill="#FFFFFF" d="M166.269,179.67v-15.112h5.618c4.714,0,7.909,3.127,7.909,7.567
		c0,4.441-3.195,7.545-7.909,7.545H166.269z M177.077,172.125c0-2.923-1.814-5.233-5.19-5.233h-2.966v10.444h2.966
		C175.174,177.336,177.077,174.981,177.077,172.125"/>
	<path clip-path="url(#SVGID_2_)" fill="#FFFFFF" d="M194.183,179.67l-1.111-2.899h-6.933l-1.11,2.899h-3.014l5.936-15.112h3.309
		l5.935,15.112H194.183z M189.198,162.292c-0.294-0.386-0.566-0.725-0.975-0.725c-0.52,0-0.951,0.498-0.951,1.631h-1.291
		c0-1.858,0.814-3.036,2.333-3.036c0.884,0,1.315,0.544,1.699,1.042c0.318,0.385,0.59,0.725,0.997,0.725
		c0.522,0,0.929-0.497,0.929-1.631h1.315c0,1.858-0.816,3.036-2.335,3.036C190.036,163.334,189.583,162.791,189.198,162.292
		 M189.606,167.232l-2.719,7.205h5.437L189.606,167.232z"/>
	<path clip-path="url(#SVGID_2_)" fill="#FFFFFF" d="M199.416,172.125c0-4.509,3.194-7.816,7.726-7.816
		c4.531,0,7.726,3.308,7.726,7.816c0,4.51-3.195,7.817-7.726,7.817C202.61,179.943,199.416,176.635,199.416,172.125
		 M212.149,172.125c0-3.127-1.972-5.461-5.007-5.461c-3.06,0-5.008,2.334-5.008,5.461c0,3.104,1.948,5.46,5.008,5.46
		C210.177,177.585,212.149,175.23,212.149,172.125"/>
	<path clip-path="url(#SVGID_2_)" fill="#FFFFFF" d="M227.327,179.67v-15.112h5.62c4.711,0,7.906,3.127,7.906,7.567
		c0,4.441-3.195,7.545-7.906,7.545H227.327z M238.134,172.125c0-2.923-1.812-5.233-5.187-5.233h-2.969v10.444h2.969
		C236.231,177.336,238.134,174.981,238.134,172.125"/>
	<path clip-path="url(#SVGID_2_)" fill="#FFFFFF" d="M244.773,172.125c0-4.509,3.194-7.816,7.726-7.816
		c4.532,0,7.726,3.308,7.726,7.816c0,4.51-3.194,7.817-7.726,7.817C247.967,179.943,244.773,176.635,244.773,172.125
		 M257.507,172.125c0-3.127-1.971-5.461-5.008-5.461c-3.059,0-5.008,2.334-5.008,5.461c0,3.104,1.949,5.46,5.008,5.46
		C255.536,177.585,257.507,175.23,257.507,172.125"/>
	<polygon clip-path="url(#SVGID_2_)" fill="#FFFFFF" points="285.736,179.67 285.736,168.456 281.091,179.67 279.958,179.67 
		275.336,168.456 275.336,179.67 272.685,179.67 272.685,164.558 276.425,164.558 280.526,174.504 284.648,164.558 288.387,164.558 
		288.387,179.67 	"/>
	<path clip-path="url(#SVGID_2_)" fill="#FFFFFF" d="M293.642,173.711v-9.153h2.674v9.063c0,2.402,1.338,3.965,3.874,3.965
		c2.516,0,3.853-1.563,3.853-3.965v-9.063h2.674v9.131c0,3.761-2.153,6.254-6.526,6.254
		C295.795,179.943,293.642,177.428,293.642,173.711"/>
	<polygon clip-path="url(#SVGID_2_)" fill="#FFFFFF" points="322.507,179.67 314.621,168.885 314.621,179.67 311.971,179.67 
		311.971,164.558 314.689,164.558 322.417,175.048 322.417,164.558 325.066,164.558 325.066,179.67 	"/>
	<path clip-path="url(#SVGID_2_)" fill="#FFFFFF" d="M330.322,179.67v-15.112h5.618c4.714,0,7.909,3.127,7.909,7.567
		c0,4.441-3.195,7.545-7.909,7.545H330.322z M341.13,172.125c0-2.923-1.813-5.233-5.189-5.233h-2.966v10.444h2.966
		C339.228,177.336,341.13,174.981,341.13,172.125"/>
	<path clip-path="url(#SVGID_2_)" fill="#FFFFFF" d="M347.768,172.125c0-4.509,3.194-7.816,7.727-7.816
		c4.53,0,7.726,3.308,7.726,7.816c0,4.51-3.195,7.817-7.726,7.817C350.962,179.943,347.768,176.635,347.768,172.125
		 M360.501,172.125c0-3.127-1.973-5.461-5.007-5.461c-3.061,0-5.009,2.334-5.009,5.461c0,3.104,1.948,5.46,5.009,5.46
		C358.528,177.585,360.501,175.23,360.501,172.125"/>
</g>
</svg>
