<?xml version="1.0" encoding="utf-8"?>
<!-- Generator: Adobe Illustrator 16.0.0, SVG Export Plug-In . SVG Version: 6.00 Build 0)  -->
<!DOCTYPE svg PUBLIC "-//W3C//DTD SVG 1.1//EN" "http://www.w3.org/Graphics/SVG/1.1/DTD/svg11.dtd">
<svg version="1.1" id="Layer_1" xmlns="http://www.w3.org/2000/svg" xmlns:xlink="http://www.w3.org/1999/xlink" x="0px" y="0px"
	 width="272.525px" height="24.085px" viewBox="0 0 272.525 24.085" enable-background="new 0 0 272.525 24.085"
	 xml:space="preserve">
<g id="Grupo_887" transform="translate(-1277.474 -2860.333)">
	<g enable-background="new    ">
		<path fill="#444444" d="M1278.554,2878v-10.022h3.452c0.779,0,1.374,0.048,1.784,0.144c0.574,0.132,1.064,0.371,1.47,0.718
			c0.529,0.446,0.924,1.018,1.186,1.713c0.262,0.694,0.393,1.488,0.393,2.381c0,0.762-0.089,1.436-0.267,2.023
			s-0.406,1.074-0.684,1.461c-0.278,0.385-0.582,0.688-0.913,0.908s-0.729,0.389-1.196,0.502c-0.467,0.115-1.004,0.172-1.61,0.172
			H1278.554z M1279.88,2876.817h2.14c0.661,0,1.179-0.061,1.555-0.184s0.676-0.297,0.899-0.52c0.314-0.314,0.56-0.738,0.735-1.268
			c0.175-0.531,0.263-1.176,0.263-1.932c0-1.048-0.172-1.854-0.516-2.417c-0.344-0.563-0.762-0.94-1.254-1.132
			c-0.355-0.137-0.927-0.205-1.716-0.205h-2.105V2876.817z"/>
		<path fill="#444444" d="M1293.477,2875.663l1.271,0.156c-0.201,0.744-0.572,1.32-1.114,1.73s-1.235,0.615-2.078,0.615
			c-1.062,0-1.904-0.328-2.526-0.98c-0.622-0.654-0.933-1.572-0.933-2.752c0-1.223,0.314-2.169,0.943-2.844s1.445-1.012,2.447-1.012
			c0.971,0,1.764,0.33,2.379,0.991s0.923,1.591,0.923,2.789c0,0.074-0.002,0.184-0.007,0.328h-5.414
			c0.045,0.799,0.271,1.408,0.677,1.832s0.912,0.637,1.518,0.637c0.451,0,0.836-0.119,1.155-0.355
			C1293.037,2876.559,1293.29,2876.182,1293.477,2875.663z M1289.437,2873.672h4.054c-0.055-0.609-0.209-1.068-0.465-1.374
			c-0.392-0.474-0.9-0.711-1.524-0.711c-0.565,0-1.04,0.189-1.425,0.567S1289.478,2873.04,1289.437,2873.672z"/>
		<path fill="#444444" d="M1295.801,2875.833l1.217-0.191c0.068,0.488,0.259,0.861,0.571,1.121s0.749,0.391,1.309,0.391
			c0.565,0,0.984-0.115,1.258-0.346s0.41-0.5,0.41-0.811c0-0.277-0.121-0.496-0.362-0.656c-0.168-0.109-0.588-0.248-1.258-0.416
			c-0.902-0.229-1.528-0.426-1.876-0.592s-0.613-0.396-0.793-0.689c-0.18-0.295-0.27-0.619-0.27-0.975
			c0-0.323,0.074-0.623,0.222-0.898c0.148-0.276,0.35-0.505,0.605-0.688c0.191-0.142,0.452-0.261,0.783-0.359
			c0.331-0.098,0.685-0.146,1.063-0.146c0.57,0,1.07,0.082,1.5,0.246s0.749,0.387,0.954,0.666c0.205,0.281,0.346,0.655,0.424,1.125
			l-1.203,0.164c-0.055-0.374-0.213-0.665-0.475-0.875s-0.632-0.314-1.111-0.314c-0.565,0-0.968,0.094-1.21,0.28
			s-0.362,0.405-0.362,0.656c0,0.159,0.05,0.303,0.15,0.431c0.1,0.131,0.257,0.24,0.472,0.328c0.123,0.045,0.485,0.15,1.087,0.314
			c0.871,0.232,1.478,0.422,1.822,0.57s0.614,0.363,0.81,0.646c0.196,0.281,0.294,0.633,0.294,1.053c0,0.41-0.12,0.797-0.359,1.158
			c-0.239,0.363-0.584,0.643-1.036,0.842c-0.451,0.197-0.961,0.297-1.531,0.297c-0.943,0-1.662-0.197-2.157-0.588
			C1296.254,2877.184,1295.938,2876.604,1295.801,2875.833z"/>
		<path fill="#444444" d="M1308.263,2875.663l1.271,0.156c-0.201,0.744-0.572,1.32-1.114,1.73s-1.235,0.615-2.078,0.615
			c-1.062,0-1.904-0.328-2.526-0.98c-0.622-0.654-0.933-1.572-0.933-2.752c0-1.223,0.314-2.169,0.943-2.844s1.445-1.012,2.447-1.012
			c0.971,0,1.764,0.33,2.379,0.991s0.923,1.591,0.923,2.789c0,0.074-0.002,0.184-0.007,0.328h-5.414
			c0.045,0.799,0.271,1.408,0.677,1.832s0.912,0.637,1.518,0.637c0.451,0,0.836-0.119,1.155-0.355
			C1307.823,2876.559,1308.076,2876.182,1308.263,2875.663z M1304.223,2873.672h4.054c-0.055-0.609-0.209-1.068-0.465-1.374
			c-0.392-0.474-0.9-0.711-1.524-0.711c-0.565,0-1.04,0.189-1.425,0.567S1304.264,2873.04,1304.223,2873.672z"/>
		<path fill="#444444" d="M1311.08,2878v-7.26h1.107v1.032c0.533-0.798,1.303-1.196,2.311-1.196c0.438,0,0.84,0.078,1.207,0.236
			c0.367,0.156,0.642,0.363,0.824,0.618s0.31,0.559,0.383,0.909c0.045,0.228,0.068,0.627,0.068,1.196V2878h-1.23v-4.416
			c0-0.502-0.048-0.876-0.144-1.125c-0.096-0.248-0.266-0.446-0.509-0.594c-0.244-0.148-0.53-0.223-0.858-0.223
			c-0.524,0-0.977,0.166-1.357,0.499s-0.571,0.964-0.571,1.894V2878H1311.08z"/>
		<path fill="#444444" d="M1320.882,2878l-2.762-7.26h1.299l1.559,4.348c0.168,0.469,0.324,0.957,0.465,1.463
			c0.109-0.383,0.262-0.844,0.458-1.381l1.613-4.43h1.265l-2.748,7.26H1320.882z"/>
		<path fill="#444444" d="M1325.408,2874.37c0-1.344,0.374-2.339,1.121-2.987c0.625-0.538,1.385-0.807,2.283-0.807
			c0.998,0,1.814,0.327,2.447,0.98c0.633,0.654,0.95,1.557,0.95,2.711c0,0.934-0.14,1.668-0.42,2.205
			c-0.28,0.535-0.688,0.951-1.224,1.246c-0.536,0.297-1.12,0.445-1.753,0.445c-1.016,0-1.838-0.326-2.464-0.979
			C1325.721,2876.536,1325.408,2875.596,1325.408,2874.37z M1326.672,2874.37c0,0.93,0.203,1.627,0.608,2.09
			c0.406,0.461,0.916,0.693,1.531,0.693c0.611,0,1.119-0.232,1.524-0.697s0.608-1.174,0.608-2.127c0-0.896-0.204-1.578-0.612-2.04
			c-0.408-0.463-0.915-0.694-1.521-0.694c-0.615,0-1.125,0.23-1.531,0.69S1326.672,2873.44,1326.672,2874.37z"/>
		<path fill="#444444" d="M1333.625,2878v-10.022h1.23V2878H1333.625z"/>
		<path fill="#444444" d="M1338.779,2878l-2.762-7.26h1.299l1.559,4.348c0.168,0.469,0.324,0.957,0.465,1.463
			c0.109-0.383,0.262-0.844,0.458-1.381l1.613-4.43h1.265l-2.748,7.26H1338.779z"/>
		<path fill="#444444" d="M1343.769,2869.394v-1.415h1.23v1.415H1343.769z M1343.769,2878v-7.26h1.23v7.26H1343.769z"/>
		<path fill="#444444" d="M1346.873,2878v-7.26h1.101v1.019c0.228-0.355,0.531-0.642,0.909-0.858
			c0.378-0.216,0.809-0.324,1.292-0.324c0.538,0,0.979,0.111,1.323,0.335s0.587,0.535,0.728,0.937
			c0.574-0.848,1.322-1.271,2.242-1.271c0.72,0,1.274,0.199,1.661,0.598c0.387,0.399,0.581,1.014,0.581,1.842V2878h-1.224v-4.574
			c0-0.492-0.04-0.846-0.12-1.063c-0.08-0.216-0.225-0.391-0.434-0.522s-0.456-0.198-0.738-0.198c-0.51,0-0.934,0.17-1.271,0.51
			c-0.337,0.339-0.506,0.883-0.506,1.629V2878h-1.23v-4.717c0-0.547-0.1-0.958-0.301-1.231s-0.529-0.41-0.984-0.41
			c-0.346,0-0.667,0.091-0.96,0.273s-0.507,0.449-0.639,0.8c-0.132,0.351-0.198,0.857-0.198,1.517V2878H1346.873z"/>
		<path fill="#444444" d="M1363.505,2875.663l1.271,0.156c-0.201,0.744-0.572,1.32-1.114,1.73s-1.235,0.615-2.078,0.615
			c-1.062,0-1.904-0.328-2.526-0.98c-0.622-0.654-0.933-1.572-0.933-2.752c0-1.223,0.314-2.169,0.943-2.844s1.445-1.012,2.447-1.012
			c0.971,0,1.764,0.33,2.379,0.991s0.923,1.591,0.923,2.789c0,0.074-0.002,0.184-0.007,0.328h-5.414
			c0.045,0.799,0.271,1.408,0.677,1.832s0.912,0.637,1.518,0.637c0.451,0,0.836-0.119,1.155-0.355
			C1363.065,2876.559,1363.318,2876.182,1363.505,2875.663z M1359.464,2873.672h4.054c-0.055-0.609-0.209-1.068-0.465-1.374
			c-0.392-0.474-0.9-0.711-1.524-0.711c-0.565,0-1.04,0.189-1.425,0.567S1359.505,2873.04,1359.464,2873.672z"/>
		<path fill="#444444" d="M1366.321,2878v-7.26h1.107v1.032c0.533-0.798,1.303-1.196,2.311-1.196c0.438,0,0.84,0.078,1.207,0.236
			c0.367,0.156,0.642,0.363,0.824,0.618s0.31,0.559,0.383,0.909c0.045,0.228,0.068,0.627,0.068,1.196V2878h-1.23v-4.416
			c0-0.502-0.048-0.876-0.144-1.125c-0.096-0.248-0.266-0.446-0.509-0.594c-0.244-0.148-0.53-0.223-0.858-0.223
			c-0.524,0-0.977,0.166-1.357,0.499s-0.571,0.964-0.571,1.894V2878H1366.321z"/>
		<path fill="#444444" d="M1376.794,2876.899l0.178,1.088c-0.346,0.072-0.656,0.109-0.93,0.109c-0.447,0-0.793-0.07-1.039-0.213
			c-0.246-0.141-0.419-0.326-0.52-0.557s-0.15-0.715-0.15-1.453v-4.176h-0.902v-0.957h0.902v-1.798l1.224-0.738v2.536h1.237v0.957
			h-1.237v4.245c0,0.352,0.021,0.576,0.065,0.678c0.043,0.1,0.114,0.18,0.212,0.238c0.098,0.061,0.238,0.09,0.42,0.09
			C1376.39,2876.948,1376.57,2876.932,1376.794,2876.899z"/>
		<path fill="#444444" d="M1377.539,2874.37c0-1.344,0.374-2.339,1.121-2.987c0.625-0.538,1.385-0.807,2.283-0.807
			c0.998,0,1.814,0.327,2.447,0.98c0.633,0.654,0.95,1.557,0.95,2.711c0,0.934-0.14,1.668-0.42,2.205
			c-0.28,0.535-0.688,0.951-1.224,1.246c-0.536,0.297-1.12,0.445-1.753,0.445c-1.016,0-1.838-0.326-2.464-0.979
			C1377.852,2876.536,1377.539,2875.596,1377.539,2874.37z M1378.803,2874.37c0,0.93,0.203,1.627,0.608,2.09
			c0.406,0.461,0.916,0.693,1.531,0.693c0.611,0,1.119-0.232,1.524-0.697s0.608-1.174,0.608-2.127c0-0.896-0.204-1.578-0.612-2.04
			c-0.408-0.463-0.915-0.694-1.521-0.694c-0.615,0-1.125,0.23-1.531,0.69S1378.803,2873.44,1378.803,2874.37z"/>
		<path fill="#444444" d="M1390.035,2880.946v-13.138h1.073v13.138H1390.035z"/>
	</g>
	<g id="Grupo_873" transform="translate(1406.117 2860.333)">
		<g>
			<defs>
				<rect id="SVGID_1_" x="0" width="143.883" height="24.085"/>
			</defs>
			<clipPath id="SVGID_2_">
				<use xlink:href="#SVGID_1_"  overflow="visible"/>
			</clipPath>
			<g id="Grupo_872" clip-path="url(#SVGID_2_)">
				<g enable-background="new    ">
					<path fill="#444444" d="M38.991,17.027H37.39v-5.743c0-1.106-0.17-1.907-0.512-2.402S35.961,8.14,35.153,8.14
						c-0.684,0-1.264,0.313-1.742,0.938s-0.719,1.374-0.719,2.246v5.704h-1.602v-5.938c0-1.966-0.758-2.949-2.275-2.949
						c-0.703,0-1.282,0.295-1.738,0.884c-0.455,0.589-0.684,1.355-0.684,2.3v5.704h-1.602v-10h1.602v1.582h0.039
						c0.71-1.211,1.745-1.816,3.105-1.816c0.684,0,1.279,0.19,1.787,0.571s0.856,0.881,1.045,1.499c0.742-1.38,1.85-2.07,3.32-2.07
						c2.201,0,3.301,1.357,3.301,4.072V17.027z"/>
					<path fill="#444444" d="M49.177,17.027h-1.602v-1.563h-0.039c-0.696,1.197-1.722,1.797-3.076,1.797
						c-0.996,0-1.775-0.264-2.338-0.791c-0.563-0.527-0.846-1.229-0.846-2.1c0-1.869,1.101-2.957,3.301-3.262l2.998-0.42
						c0-1.699-0.687-2.549-2.061-2.549c-1.204,0-2.291,0.41-3.262,1.23V7.729c0.983-0.625,2.116-0.938,3.398-0.938
						c2.351,0,3.525,1.243,3.525,3.73V17.027z M47.575,11.968L45.163,12.3c-0.742,0.104-1.302,0.288-1.68,0.551
						c-0.377,0.264-0.566,0.73-0.566,1.402c0,0.488,0.175,0.887,0.523,1.195c0.348,0.311,0.812,0.465,1.391,0.465
						c0.795,0,1.451-0.279,1.969-0.836s0.775-1.262,0.775-2.113V11.968z"/>
					<path fill="#444444" d="M57.409,8.647c-0.279-0.215-0.684-0.322-1.211-0.322c-0.684,0-1.254,0.322-1.713,0.967
						s-0.689,1.523-0.689,2.637v5.098h-1.602v-10h1.602v2.061h0.039c0.229-0.703,0.576-1.252,1.045-1.646s0.993-0.591,1.572-0.591
						c0.417,0,0.736,0.046,0.957,0.137V8.647z"/>
				</g>
				<g enable-background="new    ">
					<path fill="#444444" d="M67.448,17.027h-2.246l-4.414-4.805h-0.039v4.805h-1.602V2.222h1.602v9.385h0.039l4.199-4.58h2.1
						l-4.639,4.824L67.448,17.027z"/>
				</g>
				<g enable-background="new    ">
					<path fill="#444444" d="M76.786,12.427h-7.061c0.026,1.114,0.326,1.973,0.898,2.579c0.573,0.605,1.361,0.908,2.363,0.908
						c1.127,0,2.162-0.371,3.105-1.113v1.504c-0.879,0.637-2.041,0.957-3.486,0.957c-1.412,0-2.522-0.455-3.33-1.363
						c-0.807-0.908-1.211-2.186-1.211-3.833c0-1.556,0.441-2.824,1.324-3.804c0.882-0.979,1.977-1.47,3.285-1.47
						s2.321,0.423,3.037,1.27c0.717,0.847,1.074,2.021,1.074,3.525V12.427z M75.145,11.069c-0.006-0.925-0.229-1.644-0.668-2.158
						S73.427,8.14,72.645,8.14c-0.755,0-1.396,0.271-1.924,0.811s-0.853,1.247-0.977,2.119H75.145z"/>
					<path fill="#444444" d="M83.847,16.929c-0.377,0.207-0.875,0.313-1.494,0.313c-1.751,0-2.627-0.977-2.627-2.93V8.394h-1.719
						V7.026h1.719V4.585l1.602-0.518v2.959h2.52v1.367h-2.52v5.635c0,0.67,0.114,1.148,0.342,1.436
						c0.229,0.285,0.605,0.43,1.133,0.43c0.404,0,0.752-0.111,1.045-0.332V16.929z"/>
				</g>
				<g enable-background="new    ">
					<path fill="#444444" d="M102.476,17.027h-1.602v-5.743c0-1.106-0.171-1.907-0.513-2.402S99.446,8.14,98.639,8.14
						c-0.684,0-1.265,0.313-1.743,0.938s-0.718,1.374-0.718,2.246v5.704h-1.602v-5.938c0-1.966-0.759-2.949-2.275-2.949
						c-0.703,0-1.282,0.295-1.738,0.884s-0.684,1.355-0.684,2.3v5.704h-1.602v-10h1.602v1.582h0.039
						c0.71-1.211,1.745-1.816,3.105-1.816c0.684,0,1.279,0.19,1.787,0.571s0.856,0.881,1.045,1.499c0.742-1.38,1.849-2.07,3.32-2.07
						c2.2,0,3.301,1.357,3.301,4.072V17.027z"/>
					<path fill="#444444" d="M113.541,12.427h-7.061c0.026,1.114,0.325,1.973,0.898,2.579s1.36,0.908,2.363,0.908
						c1.126,0,2.161-0.371,3.105-1.113v1.504c-0.879,0.637-2.041,0.957-3.486,0.957c-1.413,0-2.522-0.455-3.33-1.363
						s-1.211-2.186-1.211-3.833c0-1.556,0.44-2.824,1.323-3.804s1.978-1.47,3.286-1.47s2.321,0.423,3.037,1.27
						s1.074,2.021,1.074,3.525V12.427z M111.9,11.069c-0.007-0.925-0.229-1.644-0.669-2.158s-1.05-0.771-1.831-0.771
						c-0.755,0-1.396,0.271-1.924,0.811s-0.853,1.247-0.977,2.119H111.9z"/>
				</g>
				<g enable-background="new    ">
					<path fill="#444444" d="M124.498,17.027h-1.602v-1.699h-0.039c-0.742,1.289-1.888,1.934-3.438,1.934
						c-1.257,0-2.261-0.447-3.013-1.344c-0.752-0.895-1.128-2.113-1.128-3.657c0-1.653,0.417-2.979,1.25-3.975
						s1.943-1.494,3.33-1.494c1.374,0,2.373,0.54,2.998,1.621h0.039V2.222h1.602V17.027z M122.896,12.505V11.03
						c0-0.808-0.267-1.491-0.801-2.051s-1.211-0.84-2.031-0.84c-0.977,0-1.745,0.358-2.305,1.074s-0.84,1.706-0.84,2.969
						c0,1.153,0.269,2.063,0.806,2.729c0.537,0.668,1.258,1.002,2.163,1.002c0.892,0,1.616-0.322,2.173-0.967
						S122.896,13.488,122.896,12.505z"/>
				</g>
				<g enable-background="new    ">
					<path fill="#444444" d="M128.48,4.487c-0.286,0-0.53-0.098-0.732-0.293s-0.303-0.442-0.303-0.742s0.101-0.549,0.303-0.747
						s0.446-0.298,0.732-0.298c0.293,0,0.542,0.1,0.747,0.298s0.308,0.447,0.308,0.747c0,0.286-0.103,0.53-0.308,0.732
						S128.773,4.487,128.48,4.487z M129.262,17.027h-1.602v-10h1.602V17.027z"/>
					<path fill="#444444" d="M139.662,17.027h-1.602v-1.563h-0.039c-0.696,1.197-1.722,1.797-3.076,1.797
						c-0.996,0-1.776-0.264-2.339-0.791s-0.845-1.229-0.845-2.1c0-1.869,1.101-2.957,3.301-3.262l2.998-0.42
						c0-1.699-0.687-2.549-2.061-2.549c-1.204,0-2.292,0.41-3.262,1.23V7.729c0.983-0.625,2.116-0.938,3.398-0.938
						c2.351,0,3.525,1.243,3.525,3.73V17.027z M138.06,11.968l-2.412,0.332c-0.742,0.104-1.302,0.288-1.68,0.551
						s-0.566,0.73-0.566,1.402c0,0.488,0.175,0.887,0.522,1.195c0.348,0.311,0.813,0.465,1.392,0.465
						c0.794,0,1.45-0.279,1.968-0.836s0.776-1.262,0.776-2.113V11.968z"/>
				</g>
				<path id="Caminho_2942" fill="#444444" d="M20.076,7.819c0.025,0.12-0.01,0.383,0.253,0.274
					c0.113-0.047,0.293-0.074,0.411-0.122c0-0.384-0.045-1.193-0.044-1.371c-0.055-0.631-0.199-1.251-0.428-1.842
					c-0.145-0.311-0.333-0.599-0.56-0.855c-0.1-0.095-0.248-0.114-0.369-0.048c-0.1,0.056-0.035,0.166-0.017,0.254
					C19.632,5.626,19.758,6.304,20.076,7.819"/>
				<path id="Caminho_2943" fill="#444444" d="M2.36,7.819C2.677,6.304,2.803,5.626,3.112,4.11c0.018-0.088,0.085-0.2-0.018-0.254
					c-0.12-0.066-0.27-0.047-0.368,0.048c-0.228,0.257-0.415,0.544-0.56,0.855C1.938,5.35,1.794,5.97,1.739,6.601
					c0,0.178-0.044,0.987-0.044,1.371c0.119,0.047,0.3,0.075,0.411,0.122C2.368,8.203,2.334,7.939,2.36,7.819"/>
				<path id="Caminho_2944" fill="#444444" d="M12.031,8.678c0.252,0.118,0.53,0.168,0.808,0.146c2.046-0.114,4.091-0.235,6.125-0.5
					c0.467-0.06,0.564-0.2,0.521-0.68c-0.101-1.117-0.4-2.2-0.614-3.292c-0.016-0.331-0.296-0.586-0.627-0.571
					c-1.215-0.129-2.433-0.148-3.653-0.158h-2.075c-0.62,0-0.892,0.254-0.899,0.887c-0.011,1.169,0,2.339-0.005,3.508
					c-0.013,0.285,0.155,0.547,0.419,0.656"/>
				<path id="Caminho_2945" fill="#444444" d="M3.595,8.329C5.279,8.552,6.972,8.66,8.666,8.763c0.511,0.077,1.029,0.08,1.541,0.011
					c0.349-0.078,0.692-0.23,0.7-0.63c0.023-1.269,0.025-2.54-0.008-3.809c-0.013-0.487-0.313-0.708-0.8-0.709
					c-0.718,0-1.434,0-2.15,0l0,0h-0.3C6.505,3.613,5.361,3.669,4.224,3.795c-0.23,0.029-0.458,0.033-0.522,0.361
					C3.426,5.303,3.207,6.463,3.048,7.632c-0.045,0.5,0.047,0.627,0.546,0.694"/>
				<path id="Caminho_2946" fill="#444444" d="M22.49,10.006c-0.028-0.398-0.373-0.699-0.771-0.674L20.852,9.39
					c-0.038,0.001-0.076,0.007-0.112,0.017c0-0.006-0.014,0.007-0.014,0c-1.135,0.211-2.232,0.586-3.26,1.114
					c-2.29,1.171-4.003,3.227-4.741,5.689c-0.217,0.672-0.38,1.36-0.489,2.058c-0.004,0.396-0.328,0.712-0.724,0.708
					c-0.034,0-0.068-0.003-0.103-0.008c-0.435-0.014-0.655-0.215-0.751-0.68c-0.096-0.467-0.178-0.967-0.3-1.443
					C9.278,12.71,6.318,10.24,1.782,9.426l0,0C1.74,9.416,1.698,9.41,1.655,9.408L1.266,9.382l-0.13-0.009L0.784,9.346
					C0.386,9.32,0.04,9.621,0.012,10.02L0,10.177c-0.025,0.399,0.275,0.744,0.674,0.772l0.867,0.058
					c0.08,0.003,0.159-0.008,0.235-0.032v3.465c0,2.149,0,3.388,1.235,4.623c1.236,1.235,2.476,1.233,4.625,1.233h7.241
					c2.15,0,3.387,0,4.623-1.236s1.237-2.473,1.237-4.623v-3.473c0.071,0.022,0.146,0.032,0.222,0.03l0.867-0.058
					c0.398-0.028,0.7-0.373,0.674-0.772L22.49,10.006z M5.4,16.257c-0.852-0.004-1.538-0.696-1.534-1.547
					c0.004-0.852,0.697-1.538,1.548-1.535c0.85,0.004,1.535,0.695,1.534,1.543C6.938,15.568,6.25,16.253,5.4,16.257 M17.236,16.257
					c-0.852-0.004-1.537-0.697-1.533-1.549c0.005-0.851,0.698-1.537,1.549-1.533c0.849,0.006,1.534,0.695,1.533,1.543
					C18.775,15.569,18.086,16.253,17.236,16.257"/>
				<path id="Caminho_2947" fill="#444444" d="M3.695,20.667c-0.038,0.52-0.038,1.04,0,1.559c0.08,0.6,0.622,0.945,1.558,0.945
					c0.443,0.021,0.883-0.088,1.266-0.313c0.355-0.285,0.333-0.732,0.333-1.221c0.005-0.162,0.002-0.324-0.011-0.486
					c-1.072,0.074-2.148-0.092-3.149-0.484"/>
				<path id="Caminho_2948" fill="#444444" d="M18.858,20.667c0.037,0.52,0.037,1.04,0,1.559c-0.08,0.6-0.622,0.945-1.559,0.945
					c-0.442,0.021-0.882-0.088-1.265-0.313c-0.356-0.285-0.332-0.732-0.332-1.221c-0.006-0.162-0.002-0.324,0.01-0.486
					c1.073,0.074,2.149-0.092,3.15-0.484"/>
			</g>
		</g>
	</g>
</g>
</svg>
